<svg width="43" height="43" viewBox="0 0 43 43" fill="none" xmlns="http://www.w3.org/2000/svg">
<path d="M9.74667 0C9.88044 0 9.99511 0 10.1289 0C14.2569 4.128 18.3849 8.23689 22.532 12.384C22.8951 12.04 23.1436 11.8107 23.392 11.5622C25.5516 9.40267 27.7111 7.224 29.8707 5.08356C31.8391 3.15333 34.4382 3.13422 36.4449 5.00711C36.9418 5.46578 37.4004 5.94356 37.8591 6.42133C39.8849 8.50444 39.8658 11.1227 37.8209 13.1867C35.6613 15.3653 33.5018 17.5058 31.3422 19.6844C31.1129 19.9138 30.8836 20.1813 30.5013 20.6018C30.9218 20.9458 31.304 21.1942 31.6098 21.5C35.0307 24.9209 38.4707 28.3418 41.8724 31.7627C42.2738 32.164 42.6178 32.6227 42.9809 33.0622C42.9809 33.1196 42.9809 33.196 42.9809 33.2533C42.1018 34.1707 41.2609 35.1071 40.3627 36.0053C37.9929 38.356 35.604 40.6684 33.2342 43C33.1004 43 32.9858 43 32.852 43C28.724 38.872 24.596 34.7631 20.3916 30.5587C18.404 32.5653 16.5311 34.4764 14.62 36.3493C14.2569 36.7124 13.76 37.0182 13.2631 37.152C10.492 37.9164 7.68267 38.6236 4.89244 39.3498C3.86044 39.6173 3.34444 39.1013 3.612 38.0311C4.28089 35.4511 4.96889 32.8902 5.59956 30.2911C5.82889 29.3356 6.26844 28.5711 6.99467 27.8831C8.61911 26.3924 10.1289 24.8444 11.6578 23.3156C11.8871 23.0862 12.1164 22.8187 12.5178 22.3791C12.0782 22.0542 11.696 21.8249 11.3711 21.5C7.95022 18.0791 4.52933 14.6582 1.10844 11.2373C0.707111 10.836 0.363111 10.3773 0 9.93778C0 9.88044 0 9.804 0 9.74667C1.39511 8.31333 2.752 6.86089 4.16622 5.44667C6.00089 3.612 7.89289 1.81556 9.74667 0ZM16.1871 8.71467C15.9004 8.37067 15.7667 8.19867 15.6138 8.02667C14.1422 6.47867 14.1231 6.47867 12.5942 7.89289C12.1547 8.31333 11.6769 8.56178 11.1991 8.04578C10.7596 7.568 10.8551 7.052 11.3329 6.63156C11.8107 6.192 12.3267 5.77156 12.7089 5.44667C11.6004 4.33822 10.7022 3.42089 9.89956 2.61822C7.45333 5.00711 4.96889 7.47244 2.58 9.86133C6.28756 13.5498 10.0524 17.2956 13.6453 20.8693C16.0342 18.4804 18.5187 15.996 20.8884 13.6071C19.7991 12.5178 18.5951 11.2947 17.2191 9.91867C16.4356 10.7596 15.5947 11.6578 14.7538 12.5751C14.2951 13.0911 13.7218 13.5116 13.1293 12.9573C12.4604 12.3267 12.9764 11.7533 13.4924 11.2756C14.3716 10.4347 15.2507 9.61289 16.1871 8.71467ZM33.368 25.7044C32.0876 24.4431 30.9791 23.4302 29.9662 22.36C29.4884 21.844 29.1827 21.8249 28.6667 22.3409C26.7747 24.2902 24.8636 26.1822 22.9333 28.0742C22.5511 28.4564 22.0542 28.7049 21.7102 28.9342C25.7236 32.9476 29.4502 36.6933 33.1004 40.3436C35.4893 37.9356 37.9547 35.4511 40.4009 33.0049C39.6173 32.2213 38.7573 31.3613 37.84 30.4249C37.668 30.5778 37.4387 30.7498 37.2476 30.9409C36.464 31.7244 35.7187 32.5653 34.8587 33.2724C34.572 33.5018 33.9604 33.3298 33.5018 33.3489C33.5209 32.9093 33.4827 32.4507 33.5973 32.0493C33.6738 31.7818 33.9987 31.5716 34.228 31.3613C35.0307 30.6351 35.8333 29.928 36.6551 29.2209C36.3111 28.8196 36.1964 28.6284 36.0436 28.4756C34.572 26.9276 34.572 26.9276 33.024 28.3418C32.5844 28.7431 32.1067 29.0298 31.6289 28.4947C31.1893 28.0169 31.2849 27.5009 31.7436 27.0613C32.2213 26.66 32.7182 26.2587 33.368 25.7044ZM13.5116 34.572C19.4551 28.6476 25.4178 22.7231 31.3996 16.7604C30.8071 16.168 30.1573 15.5182 29.5649 14.9258C23.6022 20.9076 17.6587 26.8702 11.6769 32.8711C12.2693 33.4062 12.9573 34.056 13.5116 34.572ZM26.2969 11.6004C20.296 17.6013 14.3524 23.5449 8.44711 29.4502C8.98222 30.0236 9.59378 30.6733 10.0524 31.1702C16.0151 25.1884 21.9587 19.2449 27.8831 13.3396C27.3862 12.8044 26.7938 12.1547 26.2969 11.6004ZM30.1764 7.43422C31.9156 9.17333 33.6164 10.8742 35.3364 12.556C35.432 12.6516 35.7378 12.6707 35.8333 12.5942C36.5787 11.868 37.4578 11.2373 37.5342 10.0524C37.6298 8.38978 35.1262 5.59956 33.4636 5.46578C31.9156 5.332 31.132 6.364 30.1764 7.43422ZM11.4284 35.776C9.99511 34.3427 8.6 32.9667 7.20489 31.5716C6.76533 33.2916 6.26844 35.1644 5.73333 37.2667C7.85467 36.7124 9.70844 36.2347 11.4284 35.776ZM34.0751 14.3524C32.2213 12.5178 30.444 10.7404 28.724 9.02044C28.3991 9.30711 27.9596 9.68933 27.6729 9.95689C29.4884 11.7916 31.2658 13.588 33.0813 15.4036C33.4253 15.0404 33.8267 14.62 34.0751 14.3524Z" fill="white"/>
</svg>
