<svg width="22" height="22" viewBox="0 0 22 22" fill="none" xmlns="http://www.w3.org/2000/svg">
<g clip-path="url(#clip0)">
<path d="M1.67344 0C7.89027 0 14.1071 0 20.3239 0C20.3411 0.00861057 20.3627 0.0258317 20.3799 0.030137C21.4261 0.266928 21.9987 0.981605 21.9987 2.04932C21.9987 8.02075 21.9987 13.9922 21.9944 19.9636C21.9944 20.1617 21.9771 20.3683 21.9255 20.5577C21.6973 21.4403 20.9396 22 19.9795 22C15.2049 22 10.4261 22 5.65152 22C4.4116 22 3.17599 22.0043 1.93607 22C1.08793 21.9957 0.351723 21.4618 0.0934062 20.674C0.0546587 20.5577 0.028827 20.4415 -0.00561523 20.3253C-0.00130995 14.1084 -0.00130995 7.89159 -0.00130995 1.67476C0.0159112 1.61448 0.0331323 1.55421 0.0503534 1.48963C0.188122 0.951468 0.489492 0.52955 0.975989 0.262622C1.19125 0.142074 1.44096 0.0861057 1.67344 0ZM20.7114 10.3456C20.7114 10.2681 20.7114 10.2035 20.7114 10.1389C20.7114 7.43953 20.7114 4.74012 20.7114 2.04071C20.7114 1.53699 20.4617 1.28728 19.958 1.28728C17.2672 1.28728 14.5721 1.28728 11.8813 1.28728C11.8038 1.28728 11.7306 1.28728 11.6531 1.28728C11.6531 4.32251 11.6531 7.3276 11.6531 10.3413C14.6711 10.3456 17.6719 10.3456 20.7114 10.3456ZM10.3443 1.28728C10.2582 1.28728 10.1893 1.28728 10.1204 1.28728C7.43391 1.28728 4.74742 1.28728 2.06522 1.28728C1.53568 1.28728 1.29027 1.52838 1.29027 2.05793C1.29027 4.74442 1.29027 7.43092 1.29027 10.1131C1.29027 10.1906 1.29027 10.2638 1.29027 10.3413C4.3255 10.3413 7.33058 10.3413 10.3443 10.3413C10.3443 7.3319 10.3443 4.32681 10.3443 1.28728ZM1.28597 11.6544C1.28597 11.7405 1.28597 11.8094 1.28597 11.8783C1.28597 14.5648 1.28597 17.247 1.28597 19.9335C1.28597 20.463 1.52706 20.7084 2.06092 20.7084C4.74742 20.7084 7.42961 20.7084 10.1161 20.7084C10.1936 20.7084 10.2668 20.7084 10.3443 20.7084C10.3443 17.6732 10.3443 14.6681 10.3443 11.6544C7.33058 11.6544 4.3255 11.6544 1.28597 11.6544ZM11.6531 20.7127C11.7392 20.7127 11.8081 20.7127 11.8813 20.7127C14.5678 20.7127 17.25 20.7127 19.9364 20.7127C20.466 20.7127 20.7114 20.4716 20.7114 19.9378C20.7114 17.2513 20.7114 14.5691 20.7114 11.8826C20.7114 11.8051 20.7114 11.7319 20.7114 11.6544C17.6762 11.6544 14.6711 11.6544 11.6574 11.6544C11.6531 14.6724 11.6531 17.6732 11.6531 20.7127Z" fill="white"/>
<path d="M16.1448 6.48796C15.5378 6.48796 14.9307 6.48796 14.3237 6.48796C13.8716 6.48796 13.5789 6.22965 13.5789 5.83787C13.5832 5.4547 13.8759 5.20068 14.3108 5.20068C15.5421 5.20068 16.7691 5.20068 18.0004 5.20068C18.4395 5.20068 18.728 5.459 18.7323 5.83787C18.7366 6.22965 18.4395 6.48796 17.9875 6.48796C17.3761 6.48796 16.7605 6.48796 16.1448 6.48796Z" fill="white"/>
<path d="M5.20077 5.20085C5.20077 4.76602 5.20077 4.36563 5.20077 3.96524C5.20508 3.55193 5.47631 3.25917 5.85087 3.26347C6.21682 3.26778 6.48375 3.55623 6.48805 3.95663C6.49236 4.34841 6.49236 4.74449 6.49236 5.13627C6.49236 5.14919 6.50097 5.16211 6.51819 5.19655C6.90136 5.19655 7.29314 5.19655 7.68492 5.19655C8.12406 5.19655 8.41682 5.45056 8.42113 5.83373C8.42543 6.22551 8.12837 6.48813 7.68062 6.48813C7.29314 6.48813 6.90997 6.48813 6.48805 6.48813C6.48805 6.65604 6.48805 6.81964 6.48805 6.97894C6.48805 7.22864 6.49236 7.47835 6.48805 7.73236C6.48375 8.13275 6.21682 8.42121 5.84657 8.42121C5.47631 8.42121 5.20508 8.13706 5.20077 7.73667C5.19647 7.33628 5.19647 6.93588 5.19647 6.53549C5.19647 6.53119 5.19216 6.52258 5.17494 6.48813C4.86066 6.48813 4.53345 6.48813 4.21056 6.48813C4.10293 6.48813 3.99529 6.49244 3.88766 6.48813C3.53893 6.46661 3.2677 6.18676 3.2677 5.84234C3.2677 5.50222 3.53893 5.21377 3.89197 5.20516C4.31819 5.19224 4.74441 5.20085 5.20077 5.20085Z" fill="white"/>
<path d="M6.73777 16.162C7.06066 16.4806 7.36634 16.769 7.6634 17.0661C7.84853 17.2555 7.9088 17.4837 7.81409 17.7377C7.72798 17.9745 7.55577 18.1123 7.31037 18.1553C7.08219 18.1941 6.88845 18.1123 6.72916 17.953C6.4407 17.6645 6.15655 17.376 5.84657 17.0575C5.61839 17.2856 5.40743 17.5052 5.19217 17.7205C5.11037 17.8023 5.03287 17.8841 4.94677 17.9616C4.66262 18.2285 4.27945 18.2328 4.02113 17.9745C3.76282 17.7162 3.76282 17.3287 4.03405 17.0532C4.3225 16.7561 4.61957 16.4719 4.93816 16.1577C4.63679 15.8563 4.34833 15.5721 4.05988 15.2837C3.89197 15.1201 3.80156 14.922 3.84031 14.6852C3.88336 14.4398 4.02113 14.2676 4.25792 14.1815C4.51193 14.0911 4.74011 14.1514 4.92955 14.3322C5.18356 14.5733 5.42896 14.8273 5.67436 15.0727C5.72602 15.1201 5.77769 15.1674 5.84657 15.2363C6.14794 14.9307 6.4407 14.6293 6.74207 14.3365C6.9315 14.1514 7.15968 14.0911 7.41369 14.1772C7.6591 14.2633 7.80117 14.4442 7.83992 14.6982C7.87436 14.9263 7.78395 15.1201 7.62465 15.2794C7.34481 15.5635 7.06066 15.8434 6.73777 16.162Z" fill="white"/>
<path d="M16.1535 14.2245C16.7734 14.2245 17.3977 14.2245 18.0177 14.2245C18.4353 14.2245 18.728 14.4871 18.7323 14.8617C18.7366 15.2449 18.4439 15.5118 18.0133 15.5118C16.7777 15.5118 15.5378 15.5118 14.3022 15.5118C13.8717 15.5118 13.5746 15.2449 13.5789 14.8617C13.5832 14.4785 13.876 14.2202 14.3108 14.2202C14.9265 14.2202 15.5378 14.2245 16.1535 14.2245Z" fill="white"/>
<path d="M16.1535 16.7993C16.7734 16.7993 17.3977 16.7993 18.0177 16.7993C18.4353 16.7993 18.728 17.0619 18.7323 17.4365C18.7366 17.8197 18.4439 18.0866 18.0133 18.0866C16.7777 18.0866 15.5378 18.0866 14.3022 18.0866C13.8717 18.0866 13.5746 17.8197 13.5789 17.4408C13.5789 17.0576 13.876 16.7993 14.3108 16.7993C14.9265 16.7993 15.5378 16.7993 16.1535 16.7993Z" fill="white"/>
</g>
<defs>
<clipPath id="clip0">
<rect width="22" height="22" fill="white"/>
</clipPath>
</defs>
</svg>
