<svg width="18" height="22" viewBox="0 0 18 22" fill="none" xmlns="http://www.w3.org/2000/svg">
<g clip-path="url(#clip0)">
<path d="M7.43365 0C7.73555 0.0645287 8.0462 0.11185 8.34372 0.197888C10.3389 0.774345 11.7302 2.56824 11.7696 4.61165C11.7783 5.05045 11.5289 5.34728 11.1395 5.36019C10.7633 5.37309 10.4832 5.08056 10.4614 4.64607C10.3914 3.17912 9.52942 1.98749 8.19496 1.50567C5.94605 0.688307 3.56151 2.28002 3.50464 4.63747C3.49151 5.14939 3.09773 5.46774 2.64708 5.32577C2.36268 5.23543 2.19642 4.99022 2.19642 4.66328C2.19205 2.64998 3.56152 0.834572 5.56978 0.215096C5.88042 0.120454 6.2042 0.0688307 6.51922 0C6.82549 0 7.12738 0 7.43365 0Z" fill="#329DEB"/>
<path d="M4.9397 11.0602C4.9397 10.9828 4.9397 10.9096 4.9397 10.8322C4.9397 8.76299 4.93532 6.69807 4.9397 4.62885C4.9397 3.62651 5.56537 2.83496 6.52356 2.60265C7.73989 2.30582 8.98685 3.17481 9.05248 4.40515C9.09624 5.20531 9.06998 6.00546 9.07436 6.80992C9.07436 6.89596 9.07436 6.9777 9.07436 7.08524C10.1813 6.74539 11.0651 7.01641 11.7477 7.94132C12.3252 7.61008 12.9465 7.52404 13.5853 7.74344C14.2285 7.96283 14.6616 8.40593 14.9154 9.03401C15.3179 8.86624 15.7248 8.7888 16.1536 8.84473C17.1555 8.96948 17.9956 9.82986 18 10.8236C18.0044 12.8283 18.0175 14.833 17.9475 16.8334C17.86 19.3285 15.808 21.5268 13.2965 21.9053C12.9465 21.957 12.5877 21.9828 12.2333 21.9871C11.1351 21.9957 10.0369 22.0215 8.93872 21.9828C6.74232 21.9053 5.10596 20.9073 4.07776 18.9886C2.76517 16.5451 1.47446 14.0931 0.174991 11.6496C0.131238 11.5678 0.0831096 11.4861 0.0481071 11.4001C-0.0481495 11.1376 -0.0131471 10.8752 0.209993 10.7161C0.805035 10.2902 1.4132 9.88149 2.18326 9.82556C3.25958 9.74813 4.13027 10.1181 4.79969 10.9527C4.83031 10.9914 4.86094 11.0301 4.89157 11.0688C4.90907 11.0688 4.92657 11.0645 4.9397 11.0602ZM1.54009 11.4087C1.55759 11.4474 1.57071 11.4732 1.58384 11.499C2.80455 13.8048 4.02088 16.115 5.25034 18.4208C5.94602 19.7243 7.04422 20.4986 8.53182 20.6535C9.31063 20.7352 10.1026 20.6965 10.8857 20.6965C11.5639 20.6965 12.2421 20.718 12.9115 20.6492C14.9066 20.4556 16.5999 18.6703 16.6436 16.7C16.6874 14.7814 16.683 12.8627 16.6961 10.9484C16.7005 10.4665 16.333 10.1052 15.8692 10.1052C15.4054 10.1052 15.0423 10.4665 15.0335 10.9484C15.0291 11.2925 15.0335 11.6367 15.0335 11.9808C15.0335 12.2088 14.946 12.4024 14.7535 12.5358C14.5479 12.6777 14.3203 12.7035 14.0928 12.5917C13.8522 12.4712 13.7253 12.2733 13.7209 12.0066C13.7166 11.2495 13.7253 10.4881 13.7166 9.73092C13.7122 9.30503 13.4059 8.97809 12.9859 8.92646C12.579 8.87484 12.194 9.11575 12.0846 9.51152C12.0539 9.62767 12.0539 9.75243 12.0539 9.87288C12.0496 10.5827 12.0583 11.2882 12.0496 11.998C12.0452 12.3594 11.8045 12.6175 11.4589 12.6605C11.1658 12.6949 10.8595 12.5014 10.7764 12.2088C10.7501 12.1142 10.7457 12.0109 10.7457 11.912C10.7457 10.9828 10.7457 10.0493 10.7414 9.12005C10.7414 8.66835 10.4788 8.3328 10.0807 8.25106C9.53814 8.14351 9.07873 8.51778 9.06998 9.08993C9.06123 9.97613 9.06998 10.8666 9.06561 11.7528C9.06561 11.8819 9.06998 12.0109 9.04811 12.14C8.98248 12.51 8.61495 12.7337 8.24743 12.639C7.92365 12.553 7.75739 12.3078 7.75739 11.8991C7.75739 9.52873 7.75739 7.16268 7.75739 4.79233C7.75739 4.67617 7.75739 4.56432 7.73989 4.44817C7.67426 4.04379 7.25423 3.76847 6.84733 3.85881C6.45793 3.94485 6.24354 4.22447 6.24354 4.66327C6.24354 7.50253 6.24354 10.3461 6.24354 13.1854C6.24354 13.2714 6.24791 13.3574 6.23916 13.4435C6.20416 13.7532 5.99852 13.9769 5.69225 14.0328C5.4166 14.0845 5.17159 13.9597 4.98783 13.6715C4.58967 13.0477 4.20902 12.4153 3.79337 11.8001C3.29021 11.043 2.27514 10.8795 1.54009 11.4087Z" fill="#329DEB"/>
</g>
<defs>
<clipPath id="clip0">
<rect width="18" height="22" fill="white"/>
</clipPath>
</defs>
</svg>
