<svg width="61" height="80" viewBox="0 0 61 80" fill="none" xmlns="http://www.w3.org/2000/svg">
<path d="M58.4101 79.0029C39.5064 79.0029 20.6026 79.0029 1.69887 79.0029C1.12743 78.431 0.571437 77.8745 0 77.3026C0 76.8853 0 76.4834 0 76.0661C0.91121 73.9021 2.85718 74.4276 4.61783 74.3503C4.61783 73.9639 4.61783 73.6393 4.61783 73.3147C4.61783 49.8202 4.61783 26.3102 4.61783 2.81564C4.61783 0.852605 5.48271 0.00247311 7.44412 0.00247311C14.0697 0.00247311 20.6953 0.00247311 27.3209 0.00247311C35.7997 0.00247311 44.2632 -0.0129838 52.7421 0.033387C53.4062 0.033387 54.1629 0.296155 54.7189 0.667121C55.4603 1.16174 55.4912 2.04279 55.4912 2.89292C55.4912 26.372 55.4912 49.8356 55.4912 73.3147C55.4912 73.6393 55.4912 73.9639 55.4912 74.3813C56.3251 74.3813 57.0974 74.3503 57.8541 74.3813C58.9661 74.4276 59.8155 75.1541 60.0626 76.2052C60.2943 77.1944 59.8155 78.1991 58.858 78.7246C58.7036 78.8174 58.5491 78.9101 58.4101 79.0029ZM50.8116 4.68593C36.9272 4.68593 23.1046 4.68593 9.29743 4.68593C9.29743 27.9486 9.29743 51.1495 9.29743 74.3194C23.1664 74.3194 36.9735 74.3194 50.7961 74.3194C50.7961 66.4982 50.7961 58.7234 50.7961 50.9176C50.4563 50.9176 50.1783 50.9176 49.9003 50.9176C47.8926 50.9176 45.9003 50.9331 43.8925 50.9022C42.5798 50.8867 41.5913 49.8356 41.6068 48.5836C41.6222 47.3471 42.5798 46.3733 43.8616 46.296C44.2014 46.2805 44.5257 46.296 44.8655 46.296C46.8424 46.296 48.8038 46.296 50.8116 46.296C50.8116 32.4002 50.8116 18.5663 50.8116 4.68593Z" fill="white"/>
<path d="M46.24 25.5376C46.24 29.9892 46.24 34.4408 46.24 38.8769C46.24 40.7936 45.3752 41.6592 43.4601 41.6592C34.5179 41.6592 25.5911 41.6592 16.6489 41.6592C14.7338 41.6592 13.8689 40.7936 13.8689 38.8769C13.8689 29.9273 13.8689 20.9778 13.8689 12.0282C13.8689 10.1116 14.7338 9.24596 16.6489 9.24596C25.5911 9.24596 34.5179 9.24596 43.4601 9.24596C45.3752 9.24596 46.24 10.1116 46.24 12.0282C46.24 16.5416 46.24 21.0396 46.24 25.5376ZM27.6915 23.1108C27.6915 20.004 27.6915 16.9744 27.6915 13.9449C24.6027 13.9449 21.5601 13.9449 18.5485 13.9449C18.5485 17.0363 18.5485 20.0504 18.5485 23.1108C21.591 23.1108 24.6181 23.1108 27.6915 23.1108ZM41.5759 13.9449C38.4716 13.9449 35.4445 13.9449 32.4174 13.9449C32.4174 17.0363 32.4174 20.0813 32.4174 23.1108C35.4908 23.1108 38.5179 23.1108 41.5759 23.1108C41.5759 20.0504 41.5759 17.0208 41.5759 13.9449ZM18.5485 27.8097C18.5485 30.9166 18.5485 33.9461 18.5485 36.9757C21.6374 36.9757 24.6799 36.9757 27.7069 36.9757C27.7069 33.8843 27.7069 30.8702 27.7069 27.8097C24.6335 27.8097 21.6219 27.8097 18.5485 27.8097ZM41.5759 27.8252C38.487 27.8252 35.4445 27.8252 32.4174 27.8252C32.4174 30.9166 32.4174 33.9616 32.4174 36.9912C35.4908 36.9912 38.5179 36.9912 41.5759 36.9912C41.5759 33.9307 41.5759 30.9166 41.5759 27.8252Z" fill="white"/>
</svg>
