<svg width="80" height="80" viewBox="0 0 80 80" fill="none" xmlns="http://www.w3.org/2000/svg">
<g clip-path="url(#clip0)">
<path d="M-0.000439376 44.3835C0.531642 42.9745 1.56451 42.4735 3.0512 42.4891C6.77577 42.5518 10.5003 42.5048 14.2249 42.5048C14.5066 42.5048 14.7883 42.5048 15.1169 42.5048C15.1169 30.8414 15.1169 19.2406 15.1169 7.60852C14.8978 7.59287 14.6944 7.56156 14.491 7.5459C13.2703 7.42066 12.3626 6.57526 12.3 5.38543C12.2374 4.32085 12.2374 3.25627 12.3 2.1917C12.3783 0.954906 13.3329 0.0781939 14.5536 -8.39001e-05C14.757 -0.0157395 14.9761 -8.39001e-05 15.1795 -8.39001e-05C31.7054 -8.39001e-05 48.2312 -8.39001e-05 64.7726 -8.39001e-05C66.8384 -8.39001e-05 67.6991 0.860972 67.7147 2.94316C67.7147 3.6007 67.7304 4.24258 67.7147 4.90011C67.6834 6.57526 66.8853 7.42066 65.2108 7.56156C65.1169 7.57721 65.0074 7.59287 64.8352 7.62418C64.8352 7.92163 64.8352 8.20343 64.8352 8.46958C64.8352 13.2132 64.8352 17.9412 64.8352 22.6848C64.8352 22.951 64.8665 23.2171 64.8039 23.4676C64.6787 24.0782 64.2875 24.4383 63.6615 24.4383C63.0356 24.4383 62.6443 24.0782 62.5191 23.4676C62.4722 23.2171 62.4878 22.951 62.4878 22.6848C62.4878 17.9725 62.4878 13.2602 62.4878 8.54786C62.4878 8.26606 62.4878 7.98426 62.4878 7.62418C47.4957 7.62418 32.5504 7.62418 17.5582 7.62418C17.5582 19.225 17.5582 30.8257 17.5582 42.4735C18.2938 42.4735 19.0136 42.4735 19.8431 42.4735C19.8431 42.1917 19.8431 41.8942 19.8431 41.5968C19.8431 31.9842 19.8431 22.3717 19.8431 12.7749C19.8431 10.7866 20.7038 9.92555 22.6913 9.92555C27.1201 9.92555 31.5489 9.92555 35.962 9.92555C37.9495 9.92555 38.8102 10.8023 38.8102 12.7905C38.8102 22.3404 38.8102 31.906 38.8102 41.4559C38.8102 41.7846 38.8102 42.1134 38.8102 42.4891C39.624 42.4891 40.3439 42.4891 41.1576 42.4891C41.1576 42.1291 41.1576 41.8003 41.1576 41.4715C41.1576 31.9686 41.1576 22.4657 41.1576 12.9627C41.1576 10.7553 41.9714 9.92555 44.1623 9.92555C48.5129 9.92555 52.8634 9.92555 57.1983 9.92555C59.2953 9.92555 60.1404 10.7709 60.1404 12.8531C60.1404 22.403 60.1404 31.9686 60.1404 41.5185C60.1404 41.8316 60.1404 42.1291 60.1404 42.4891C60.9229 42.4891 61.6428 42.4891 62.4878 42.4891C62.4878 42.2386 62.4878 41.9568 62.4878 41.6907C62.4878 37.6046 62.4878 33.5185 62.4878 29.4324C62.4878 29.1976 62.4722 28.9627 62.5035 28.7279C62.5817 28.0704 62.9573 27.679 63.6146 27.6477C64.2562 27.6007 64.757 28.0547 64.8196 28.7279C64.8509 29.1662 64.8352 29.6203 64.8352 30.0586C64.8352 33.9099 64.8352 37.7611 64.8352 41.6281C64.8352 41.9099 64.8352 42.1917 64.8352 42.5674C65.1795 42.5674 65.4456 42.5674 65.7273 42.5674C69.5614 42.5674 73.3798 42.5674 77.214 42.5674C79.0606 42.5674 79.9839 43.5067 79.9839 45.3541C79.9839 45.9803 79.9839 46.6065 79.9839 47.2328C79.9839 49.0175 79.3423 49.8003 77.5583 50.1604C77.5583 57.5811 77.5583 65.0175 77.5583 72.4539C79.4831 72.9549 79.9839 73.6124 79.9839 75.585C79.9839 76.0077 79.9526 76.4147 79.9839 76.8374C80.1404 78.3247 79.6083 79.405 78.2625 80.0782C66.2906 80.0782 54.3188 80.0782 42.3313 80.0782C41.7993 79.6868 41.3611 79.2484 41.6271 78.5283C41.8931 77.8081 42.4878 77.6985 43.1608 77.7455C43.3485 77.7611 43.5207 77.7455 43.7085 77.7455C54.6944 77.7455 65.6803 77.7455 76.6506 77.7455C76.9479 77.7455 77.2609 77.7455 77.5739 77.7455C77.5739 76.7592 77.5739 75.8668 77.5739 74.9744C52.4722 74.9744 27.4331 74.9744 2.39393 74.9744C2.39393 75.9294 2.39393 76.8218 2.39393 77.7455C2.76951 77.7455 3.06685 77.7455 3.37984 77.7455C14.5223 77.7455 25.6647 77.7455 36.7914 77.7455C37.4644 77.7455 38.059 77.8238 38.3251 78.5439C38.5911 79.2797 38.1529 79.7181 37.6208 80.0938C25.649 80.0938 13.6772 80.0938 1.6897 80.0938C1.11067 79.5146 0.547291 78.951 -0.0317383 78.3717C-0.0317383 77.0253 -0.0317383 75.6633 -0.0317383 74.3169C0.469044 73.3149 1.17327 72.5791 2.40958 72.5478C2.40958 65.0801 2.40958 57.6437 2.40958 50.176C1.17327 50.129 0.469044 49.3932 -0.0317383 48.3913C-0.000439376 46.9823 -0.000439376 45.6829 -0.000439376 44.3835ZM75.1169 50.0977C51.6428 50.0977 28.2625 50.0977 4.86654 50.0977C4.86654 57.5341 4.86654 64.9079 4.86654 72.313C28.3094 72.313 51.7054 72.313 75.1169 72.313C75.1169 64.8766 75.1169 57.5185 75.1169 50.0977ZM36.4315 42.4735C36.4471 42.223 36.4784 42.0508 36.4784 41.8629C36.4784 32.2347 36.4784 22.6066 36.4941 12.9784C36.4941 12.3991 36.3219 12.2269 35.7429 12.2269C31.455 12.2426 27.1514 12.2426 22.8634 12.2426C22.66 12.2426 22.4565 12.2739 22.2374 12.2895C22.2374 22.3561 22.2374 32.3913 22.2374 42.4578C26.9479 42.4735 31.6584 42.4735 36.4315 42.4735ZM43.5363 42.4578C48.3094 42.4578 53.0199 42.4578 57.7304 42.4578C57.7304 32.3756 57.7304 22.3404 57.7304 12.3052C52.973 12.3052 48.2781 12.3052 43.5363 12.3052C43.5363 22.3717 43.5363 32.4069 43.5363 42.4578ZM2.37828 47.6398C27.48 47.6398 52.5348 47.6398 77.5583 47.6398C77.5583 46.6848 77.5583 45.7925 77.5583 44.9001C52.4722 44.9001 27.4331 44.9001 2.37828 44.9001C2.37828 45.8238 2.37828 46.7005 2.37828 47.6398ZM14.6318 5.13494C31.5802 5.13494 48.4503 5.13494 65.3204 5.13494C65.3204 4.17995 65.3204 3.30324 65.3204 2.39522C48.4033 2.39522 31.5332 2.39522 14.6318 2.39522C14.6318 3.3189 14.6318 4.19561 14.6318 5.13494Z" fill="white"/>
<path d="M27.2144 61.2603C27.2144 62.998 27.2301 64.7515 27.2144 66.4893C27.1988 68.1644 26.2285 69.1507 24.554 69.1977C23.6776 69.2133 22.7856 69.229 21.9092 69.1977C20.3287 69.1507 19.3271 68.1644 19.3114 66.5832C19.2801 63.045 19.2801 59.5069 19.3114 55.9687C19.3271 54.3875 20.3287 53.4012 21.9092 53.3542C22.8169 53.3385 23.7246 53.3229 24.6323 53.3542C26.2129 53.4012 27.1988 54.3875 27.2144 55.9687C27.2301 57.7221 27.2144 59.4912 27.2144 61.2603ZM24.8357 55.6869C23.9593 55.6869 23.1456 55.7182 22.3474 55.6712C21.8154 55.6399 21.6119 55.8121 21.6276 56.3757C21.6589 57.7221 21.6432 59.0841 21.6432 60.4305C21.6432 62.3249 21.6276 64.2348 21.6589 66.1292C21.6589 66.364 21.8936 66.8024 22.0344 66.8024C22.9578 66.865 23.8811 66.8337 24.8513 66.8337C24.8357 63.092 24.8357 59.4599 24.8357 55.6869Z" fill="white"/>
<path d="M60.7512 61.1977C60.7512 62.9667 60.7512 64.7358 60.7512 66.5049C60.7355 68.1174 59.7496 69.135 58.1377 69.1977C57.2301 69.229 56.3224 69.229 55.4147 69.1977C53.8498 69.1507 52.8326 68.1174 52.8169 66.5675C52.8013 63.0294 52.8013 59.4912 52.8169 55.953C52.8326 54.4344 53.8498 53.4012 55.3521 53.3542C56.3067 53.3229 57.277 53.3229 58.2316 53.3542C59.7496 53.4168 60.7199 54.4501 60.7355 55.9687C60.7668 57.7065 60.7512 59.4442 60.7512 61.1977ZM55.1643 55.7339C55.1643 59.3346 55.1643 62.8571 55.18 66.3953C55.18 66.5362 55.3834 66.8024 55.493 66.818C56.4476 66.8493 57.4022 66.8337 58.3568 66.8337C58.3568 63.0607 58.3568 59.4129 58.3568 55.7339C57.277 55.7339 56.2598 55.7339 55.1643 55.7339Z" fill="white"/>
<path d="M30.4537 61.1663C30.4537 59.4286 30.4381 57.6751 30.4537 55.9374C30.4694 54.4188 31.4553 53.3855 32.9733 53.3385C33.9279 53.3072 34.8982 53.3072 35.8528 53.3385C37.3395 53.3855 38.3567 54.3875 38.3724 55.8748C38.4037 59.4599 38.4037 63.0607 38.3724 66.6458C38.3567 68.1174 37.3238 69.1194 35.8371 69.1664C34.8825 69.1977 33.9123 69.2133 32.9576 69.1664C31.4396 69.1037 30.4694 68.0705 30.4537 66.5519C30.4381 64.7671 30.4537 62.9667 30.4537 61.1663ZM32.8481 55.6869C32.8481 59.4755 32.8481 63.1389 32.8481 66.8493C33.4271 66.8493 33.9436 66.8493 34.46 66.8493C36.0406 66.8493 36.0406 66.8493 36.0406 65.2994C36.0406 62.3405 36.0406 59.3659 36.0406 56.407C36.0406 56.0939 36.1501 55.6869 35.6024 55.6869C34.6947 55.6869 33.7871 55.6869 32.8481 55.6869Z" fill="white"/>
<path d="M8.09072 61.2603C8.09072 59.5225 8.07507 57.7691 8.09072 56.0313C8.10637 54.3718 9.09229 53.3699 10.7511 53.3386C11.6275 53.3229 12.5195 53.3229 13.3959 53.3386C14.9452 53.3855 15.9624 54.3405 15.978 55.8748C16.0093 59.4599 16.0093 63.0607 15.978 66.6458C15.9624 68.18 14.9295 69.135 13.3802 69.182C12.5039 69.2133 11.6118 69.1976 10.7355 69.182C9.06099 69.1507 8.09072 68.1487 8.07507 66.4736C8.09072 64.7358 8.09072 62.998 8.09072 61.2603ZM10.4851 55.6869C10.4851 59.4599 10.4851 63.1076 10.4851 66.7867C11.5493 66.7867 12.5665 66.7867 13.6619 66.7867C13.6619 63.1702 13.6619 59.6164 13.6463 56.0626C13.6463 55.9374 13.3959 55.7182 13.2707 55.7025C12.3787 55.6712 11.471 55.6869 10.4851 55.6869Z" fill="white"/>
<path d="M63.9906 61.2446C63.9906 59.5225 63.9749 57.8161 63.9906 56.0939C64.0062 54.3249 64.9765 53.3542 66.7449 53.3386C67.5743 53.3229 68.4037 53.3229 69.2332 53.3386C70.8764 53.3699 71.8779 54.3405 71.8779 55.9687C71.8936 59.5069 71.8936 63.045 71.8779 66.5832C71.8623 68.1644 70.8607 69.1351 69.2801 69.182C68.3724 69.2133 67.4648 69.2133 66.5571 69.182C64.9765 69.1351 64.0062 68.1331 63.9906 66.5519C63.9749 64.7828 63.9906 63.0137 63.9906 61.2446ZM66.4163 55.7182C66.3693 55.8748 66.338 55.9374 66.338 56.0157C66.338 59.4442 66.338 62.8885 66.3224 66.317C66.3224 66.7241 66.4945 66.865 66.8857 66.8493C67.5117 66.8337 68.1377 66.8024 68.7637 66.8493C69.3584 66.8963 69.5775 66.7084 69.5775 66.0822C69.5462 62.8572 69.5618 59.6321 69.5618 56.407C69.5618 56.1879 69.5149 55.9687 69.4992 55.7182C68.435 55.7182 67.4491 55.7182 66.4163 55.7182Z" fill="white"/>
<path d="M49.5774 61.2759C49.5774 62.998 49.5931 64.7045 49.5774 66.4266C49.5618 68.1957 48.5915 69.1663 46.8075 69.182C45.9781 69.1976 45.1486 69.1976 44.3192 69.182C42.676 69.135 41.6901 68.1644 41.6745 66.5362C41.6588 62.998 41.6588 59.4599 41.6745 55.9217C41.6901 54.3562 42.6917 53.3699 44.2723 53.3229C45.1486 53.3072 46.0407 53.3072 46.917 53.3229C48.5602 53.3542 49.5461 54.3248 49.5618 55.953C49.5931 57.7378 49.5774 59.5068 49.5774 61.2759ZM44.0062 55.7338C44.0062 59.3346 44.0062 62.8728 44.0219 66.411C44.0219 66.5519 44.3192 66.818 44.4914 66.8337C45.133 66.8806 45.7903 66.818 46.4475 66.865C47.0579 66.9119 47.2613 66.7084 47.2457 66.0822C47.2144 62.8571 47.23 59.6321 47.23 56.407C47.23 56.2035 47.1987 56 47.1831 55.7495C46.1346 55.7338 45.133 55.7338 44.0062 55.7338Z" fill="white"/>
<path d="M53.5367 21.3542C53.3177 21.6517 53.1455 22.1057 52.8325 22.2309C52.4882 22.3718 51.8622 22.3875 51.6275 22.1683C50.266 20.9158 48.9671 19.6164 47.6995 18.2701C47.277 17.8317 47.3396 17.2368 47.7777 16.7828C48.2316 16.2975 48.8263 16.2192 49.3114 16.6732C50.6259 17.9256 51.9092 19.225 53.1768 20.5245C53.3176 20.6967 53.3646 20.9941 53.5367 21.3542Z" fill="white"/>
<path d="M55.7747 17.362C55.54 17.6282 55.3209 18.0665 54.9922 18.1761C54.6636 18.3014 54.1002 18.2701 53.8342 18.0665C53.083 17.4403 52.3788 16.7358 51.7371 15.9843C51.3302 15.5147 51.4241 14.9354 51.8623 14.4971C52.3162 14.0587 52.8952 13.9961 53.349 14.4031C54.0846 15.045 54.7731 15.7808 55.4461 16.501C55.6182 16.6888 55.6339 16.9863 55.7747 17.362Z" fill="white"/>
</g>
<defs>
<clipPath id="clip0">
<rect width="80" height="80" fill="white"/>
</clipPath>
</defs>
</svg>
