<svg width="84" height="102" viewBox="0 0 84 102" fill="none" xmlns="http://www.w3.org/2000/svg">
<g clip-path="url(#clip0)">
<path d="M40.9907 77.8818C26.972 77.8818 15.5327 66.4926 15.5327 52.5353C15.5327 38.578 26.9159 27.1888 40.9907 27.1888C55.0654 27.1888 66.4486 38.578 66.4486 52.5353C66.4486 66.4926 55.0093 77.8818 40.9907 77.8818ZM40.9907 30.7619C28.8785 30.7619 19.0654 40.532 19.0654 52.5353C19.0654 64.5386 28.8785 74.3645 40.9907 74.3645C53.0467 74.3645 62.9159 64.5944 62.9159 52.5353C62.8598 40.532 53.0467 30.7619 40.9907 30.7619Z" fill="url(#paint0_linear)"/>
<path d="M38.0187 61.9146L29.3832 53.8194L31.8505 51.2512L37.9065 56.9458L50.8598 43.6026L53.4392 46.0591L38.0187 61.9146Z" fill="url(#paint1_linear)"/>
<path d="M41.3271 102L40.8785 101.888C23.4393 97.0312 8.9159 82.2365 3.86917 64.2595C2.80375 60.4072 -3.19625 25.7373 2.243 18.0329C3.30842 16.5255 4.59814 16.1347 5.49534 16.0788C6.22431 16.023 7.17758 16.023 8.29907 15.9672C16.2617 15.8555 31.0094 15.6322 39.6449 1.06077C39.9813 0.446644 40.5981 0.0558394 41.3271 0.0558394C42 1.01998e-05 42.6729 0.279156 43.1215 0.837449C47.4953 6.14123 54.6168 12.8407 59.8318 13.9573C62.4673 14.5156 65.6075 14.6273 68.5794 14.7948C75.028 15.0739 81.1402 15.353 82.3178 19.9869C85.0093 30.5944 84 43.4352 82.7103 54.601C80.2991 75.1461 61.1776 97.2545 41.8318 101.888L41.3271 102ZM41.6075 4.52218C31.8505 19.1494 16.0935 19.3728 8.41122 19.5402C7.40188 19.5402 6.50468 19.5961 5.77571 19.5961C5.71964 19.5961 5.49534 19.5961 5.15889 20.0427C1.00935 25.9048 5.77571 57.9507 7.28973 63.2545C12 79.8916 25.3458 93.6256 41.3832 98.2594C58.9907 93.7373 76.8785 72.8572 79.1215 54.0985C80.4112 43.2677 81.3645 30.8177 78.8411 20.7685C78.3364 18.647 73.2897 18.4237 68.4112 18.2562C65.271 18.1445 62.0187 17.977 59.1028 17.3629C52.4299 16.023 45.0841 8.48605 41.6075 4.52218Z" fill="url(#paint2_linear)"/>
</g>
<defs>
<linearGradient id="paint0_linear" x1="40.9907" y1="27.1888" x2="40.9907" y2="77.8818" gradientUnits="userSpaceOnUse">
<stop stop-color="#2574B8"/>
<stop offset="1" stop-color="#329DEB"/>
</linearGradient>
<linearGradient id="paint1_linear" x1="41.4112" y1="43.6026" x2="41.4112" y2="61.9146" gradientUnits="userSpaceOnUse">
<stop stop-color="#2574B8"/>
<stop offset="1" stop-color="#329DEB"/>
</linearGradient>
<linearGradient id="paint2_linear" x1="42.0048" y1="0.0488281" x2="42.0048" y2="102" gradientUnits="userSpaceOnUse">
<stop stop-color="#2574B8"/>
<stop offset="1" stop-color="#329DEB"/>
</linearGradient>
<clipPath id="clip0">
<rect width="84" height="102" fill="white"/>
</clipPath>
</defs>
</svg>
