<svg width="88" height="83" viewBox="0 0 88 83" fill="none" xmlns="http://www.w3.org/2000/svg">
<g clip-path="url(#clip0)">
<path d="M86.6567 83.0015C58.2935 83.0015 29.9303 83.0015 1.5499 83.0015C0.723287 82.7065 0.206654 82.1338 0 81.2662C0 81.2141 0 81.1447 0 81.0927C0.482192 79.1491 2.1182 79.4441 3.51311 79.3921C3.51311 62.1257 3.51311 44.9461 3.51311 27.7492C1.30881 28.6342 0.861056 28.5474 0 27.055C0 24.3479 0 21.6235 0 18.9164C0.551076 18.4479 1.06771 17.8926 1.68767 17.5282C11.7276 11.8363 21.8019 6.16186 31.8419 0.452686C32.8062 -0.102614 33.6329 -0.13732 34.6489 0.348567C45.0333 5.2595 55.4348 10.1357 65.8364 15.012C66.1119 15.1334 66.3875 15.2549 66.7835 15.4284C66.7835 13.9014 66.7835 12.5131 66.7835 11.1422C66.8008 9.38954 67.4207 8.76483 69.1773 8.76483C72.2082 8.76483 75.2563 8.76483 78.2873 8.76483C80.1471 8.76483 80.7499 9.38955 80.7499 11.2463C80.7499 14.5434 80.7671 17.8232 80.7327 21.1203C80.7154 21.8491 80.9565 22.1788 81.6109 22.4564C83.2642 23.1679 84.8829 23.9835 86.519 24.7471C87.225 25.0768 87.7589 25.5453 87.7761 26.3609C87.8105 28.8077 87.845 31.2718 87.7761 33.7186C87.7417 34.9333 86.6912 35.5581 85.5029 35.2283C85.1068 35.1069 84.7107 34.9333 84.2974 34.7772C84.2974 49.6835 84.2974 64.5378 84.2974 79.3921C85.124 79.4441 85.899 79.4441 86.6567 79.5482C87.5522 79.687 88.1377 80.5894 88 81.4571C87.8622 82.2553 87.2939 82.6544 86.6567 83.0015ZM80.7327 79.3747C80.7327 78.9929 80.7327 78.6459 80.7327 78.3162C80.7327 63.5313 80.7327 48.7638 80.7499 33.9789C80.7499 33.2848 80.5604 32.9204 79.9233 32.608C64.6481 25.4585 49.373 18.2743 34.1151 11.0902C33.5984 10.8472 33.2023 10.8472 32.7029 11.1249C24.4196 15.8276 16.1362 20.5129 7.85283 25.1809C7.26732 25.5106 7.07788 25.8577 7.07788 26.5344C7.0951 43.8181 7.09511 61.1192 7.09511 78.4029C7.09511 78.7153 7.09511 79.0276 7.09511 79.3747C31.6524 79.3747 56.1409 79.3747 80.7327 79.3747ZM84.2802 30.7686C84.2802 29.8836 84.2458 29.1374 84.2974 28.4086C84.3319 27.8012 84.1252 27.5062 83.5741 27.2459C67.0591 19.5064 50.544 11.7496 34.0462 3.97537C33.5295 3.73243 33.1851 3.76713 32.7201 4.04478C29.2415 6.04039 25.7456 8.0013 22.2497 9.97955C16.2395 13.3461 10.2638 16.7299 4.27084 20.1311C3.97808 20.3047 3.56477 20.5823 3.54755 20.86C3.44423 21.6929 3.51311 22.5606 3.51311 23.5844C3.96086 23.3415 4.25362 23.1853 4.54638 23.0291C13.5702 17.9273 22.6113 12.8255 31.618 7.67159C32.7718 7.01217 33.7362 7.01217 34.9072 7.56747C50.9918 15.1508 67.0763 22.7167 83.1781 30.2827C83.5053 30.4215 83.8325 30.5777 84.2802 30.7686ZM77.1679 20.322C77.1679 17.5976 77.1679 14.9773 77.1679 12.3569C74.8603 12.3569 72.6215 12.3569 70.3139 12.3569C70.3139 13.8493 70.2966 15.2896 70.3311 16.7126C70.3311 16.9034 70.5377 17.1811 70.71 17.2679C72.8282 18.3091 74.9464 19.2982 77.1679 20.322Z" fill="white"/>
<path d="M61.4623 49.387C65.9398 49.387 70.4001 49.387 74.8776 49.387C76.6858 49.387 77.2713 49.9596 77.2713 51.747C77.2713 59.018 77.2713 66.2889 77.2713 73.5599C77.2713 75.3473 76.6858 75.9199 74.8776 75.9199C65.9398 75.9199 57.002 75.9199 48.0643 75.9199C46.2216 75.9199 45.6705 75.3646 45.6705 73.4731C45.6705 66.2542 45.6705 59.0527 45.6705 51.8338C45.6705 49.9249 46.2216 49.387 48.1504 49.387C52.5762 49.387 57.0193 49.387 61.4623 49.387ZM59.6541 52.9617C56.1065 52.9617 52.6623 52.9617 49.2181 52.9617C49.2181 59.4518 49.2181 65.8725 49.2181 72.3452C52.714 72.3452 56.1582 72.3452 59.6541 72.3452C59.6541 65.8725 59.6541 59.4518 59.6541 52.9617ZM63.2878 52.9444C63.2878 59.4345 63.2878 65.8725 63.2878 72.3452C66.7836 72.3452 70.2451 72.3452 73.6893 72.3452C73.6893 65.8378 73.6893 59.3997 73.6893 52.9444C70.1934 52.9444 66.7664 52.9444 63.2878 52.9444Z" fill="white"/>
<path d="M26.3484 75.9199C21.8881 75.9199 17.4106 75.9199 12.9503 75.9199C11.1938 75.9199 10.6255 75.3473 10.6255 73.5946C10.6255 66.2889 10.6255 59.0006 10.6255 51.695C10.6255 49.9423 11.1938 49.387 12.9503 49.387C21.9053 49.387 30.8775 49.387 39.8325 49.387C41.5202 49.387 42.1229 49.977 42.1229 51.6603C42.1229 58.9833 42.1229 66.3063 42.1229 73.6293C42.1229 75.3126 41.5202 75.9026 39.8325 75.9026C35.3378 75.9199 30.8431 75.9199 26.3484 75.9199ZM14.173 52.9444C14.173 59.4692 14.173 65.8898 14.173 72.3278C17.6689 72.3278 21.1132 72.3278 24.5574 72.3278C24.5574 65.8378 24.5574 59.4171 24.5574 52.9444C21.0787 52.9444 17.6517 52.9444 14.173 52.9444ZM28.2083 52.9444C28.2083 59.4692 28.2083 65.8898 28.2083 72.3278C31.7042 72.3278 35.1484 72.3278 38.5926 72.3278C38.5926 65.8378 38.5926 59.4171 38.5926 52.9444C35.1139 52.9444 31.6869 52.9444 28.2083 52.9444Z" fill="white"/>
<path d="M26.3829 45.899C21.9398 45.899 17.4968 45.899 13.0537 45.899C11.211 45.899 10.6255 45.309 10.6255 43.4869C10.6255 39.1313 10.6427 34.7757 10.6083 30.42C10.5911 29.3094 11.0044 28.598 11.986 28.06C18.9433 24.1556 25.8835 20.2337 32.7891 16.2772C33.8224 15.6872 34.7007 15.6005 35.7684 16.1558C37.4216 17.0061 39.1265 17.787 40.8142 18.5505C41.7441 18.967 42.1574 19.609 42.1574 20.6329C42.1402 28.303 42.1574 35.9904 42.1402 43.6605C42.1402 45.257 41.4858 45.899 39.8842 45.899C35.3723 45.9164 30.8776 45.899 26.3829 45.899ZM28.1566 42.2722C31.7214 42.2722 35.1484 42.2722 38.5926 42.2722C38.6099 42.1161 38.6443 41.9946 38.6443 41.8905C38.6443 35.2616 38.6615 28.6327 38.6271 22.0038C38.6271 21.7261 38.3343 21.327 38.076 21.1882C37.06 20.6502 36.0267 20.147 34.9762 19.7305C34.649 19.5917 34.1496 19.6264 33.8224 19.7826C32.1519 20.6676 30.5332 21.6567 28.8627 22.5417C28.3116 22.8367 28.1222 23.1838 28.1222 23.8258C28.1394 29.6739 28.1394 35.5219 28.1394 41.3872C28.1566 41.6649 28.1566 41.9425 28.1566 42.2722ZM24.5574 25.0926C24.4024 25.1447 24.2819 25.162 24.1958 25.2141C20.9754 27.0362 17.7551 28.8409 14.5519 30.6977C14.3108 30.8365 14.1214 31.2877 14.1214 31.5827C14.087 34.9319 14.1042 38.281 14.1042 41.6302C14.1042 41.8558 14.1386 42.064 14.1731 42.2896C17.669 42.2896 21.096 42.2896 24.5574 42.2896C24.5574 36.5457 24.5574 30.8365 24.5574 25.0926Z" fill="white"/>
<path d="M61.445 45.899C57.002 45.899 52.5589 45.899 48.1331 45.899C46.2388 45.899 45.6705 45.3264 45.6705 43.4349C45.6705 37.0663 45.7221 30.6803 45.636 24.3117C45.6016 22.0732 47.2892 21.5526 48.8047 22.2814C57.7425 26.5503 66.7147 30.7497 75.6869 34.9318C76.7891 35.4524 77.3057 36.1639 77.2713 37.396C77.2196 39.409 77.254 41.4393 77.254 43.4522C77.254 45.2917 76.6513 45.899 74.8431 45.899C70.3828 45.899 65.9225 45.899 61.445 45.899ZM49.2008 42.2722C52.7311 42.2722 56.1754 42.2722 59.6885 42.2722C59.6885 41.9599 59.6885 41.6996 59.6885 41.4566C59.6885 38.3331 59.6712 35.2268 59.7057 32.1033C59.7057 31.4786 59.4646 31.2009 58.948 30.958C55.9515 29.5871 52.9894 28.1641 50.0102 26.7585C49.7691 26.6371 49.5108 26.5503 49.2008 26.4115C49.2008 31.7736 49.2008 36.9795 49.2008 42.2722ZM73.7581 42.3069C73.7581 41.0228 73.7237 39.8428 73.7754 38.6628C73.7926 38.1248 73.6204 37.8472 73.121 37.6216C70.0556 36.1986 67.0074 34.7583 63.9421 33.318C63.7527 33.2312 63.5288 33.1792 63.3049 33.0924C63.3049 36.1986 63.3049 39.2354 63.3049 42.2896C66.8008 42.3069 70.2278 42.3069 73.7581 42.3069Z" fill="white"/>
</g>
<defs>
<clipPath id="clip0">
<rect width="88" height="83" fill="white"/>
</clipPath>
</defs>
</svg>
