<svg width="86" height="86" viewBox="0 0 86 86" fill="none" xmlns="http://www.w3.org/2000/svg">
<g clip-path="url(#clip0)">
<path d="M0 85.5456V0.454403C0 0.201957 0.201957 0 0.454403 0C28.8293 0 57.1874 0 85.5624 0C85.8148 0 86.0168 0.201957 86.0168 0.454403V85.5624C86.0168 85.8148 85.8148 86.0168 85.5624 86.0168H0.454403C0.201957 86 0 85.798 0 85.5456ZM45.0364 5.09941H5.55381C5.30137 5.09941 5.09941 5.30137 5.09941 5.55381V80.4798C5.09941 80.7323 5.30137 80.9342 5.55381 80.9342H45.0364C45.2888 80.9342 45.4908 80.7323 45.4908 80.4798V5.55381C45.4908 5.30137 45.2888 5.09941 45.0364 5.09941ZM50.6239 15.6012V70.3651C50.6239 70.6176 50.8258 70.8195 51.0783 70.8195H70.3988C70.6512 70.8195 70.8532 70.6176 70.8532 70.3651V15.6012C70.8532 15.3487 70.6512 15.1468 70.3988 15.1468H51.0614C50.809 15.1636 50.6239 15.3656 50.6239 15.6012ZM80.9006 80.4798V5.55381C80.9006 5.30137 80.6986 5.09941 80.4461 5.09941H51.0446C50.7921 5.09941 50.5902 5.30137 50.5902 5.55381V9.64344C50.5902 9.89589 50.7921 10.0978 51.0446 10.0978H75.4141C75.6665 10.0978 75.8685 10.2998 75.8685 10.5522V75.5319C75.8685 75.7843 75.6665 75.9863 75.4141 75.9863H51.0614C50.809 75.9863 50.607 76.1882 50.607 76.4407V80.5135C50.607 80.7659 50.809 80.9679 51.0614 80.9679H80.463C80.6986 80.9342 80.9006 80.7323 80.9006 80.4798Z" fill="white"/>
<path d="M10.1147 75.8685C10.1147 53.9393 10.1147 32.0607 10.1147 10.1315C20.2126 10.1315 30.2768 10.1315 40.4083 10.1315C40.4083 32.0102 40.4083 53.9057 40.4083 75.8685C30.3609 75.8685 20.2631 75.8685 10.1147 75.8685ZM35.3762 70.8532C35.3762 52.2395 35.3762 33.71 35.3762 15.1973C28.5938 15.1973 21.8619 15.1973 15.1637 15.1973C15.1637 33.7773 15.1637 52.3069 15.1637 70.8532C21.9124 70.8532 28.6106 70.8532 35.3762 70.8532Z" fill="white"/>
<path d="M64.3907 46.753C64.4075 46.7699 64.4075 46.7699 64.4244 46.7867C65.35 47.6955 65.35 49.1934 64.4244 50.1022C63.078 51.4485 61.7316 52.7949 60.3852 54.1413C59.4596 55.0669 57.9786 55.0501 57.0698 54.1413C57.0529 54.1245 57.0529 54.1245 57.0361 54.1076C56.1273 53.182 56.1273 51.701 57.0361 50.7922C58.3657 49.4626 59.7289 48.0994 61.0752 46.753C62.0009 45.8274 63.4819 45.8274 64.3907 46.753Z" fill="white"/>
<path d="M64.4244 35.2078C63.078 36.5542 61.7316 37.9174 60.3852 39.2638C59.4764 40.1894 57.9786 40.1894 57.0698 39.2638C57.0529 39.247 57.0193 39.2133 57.0025 39.1965C56.0768 38.2877 56.0768 36.7898 57.0025 35.881C58.3488 34.5346 59.712 33.1714 61.0584 31.8251C61.9672 30.8994 63.4651 30.8994 64.3739 31.8251C64.3907 31.8419 64.4244 31.8755 64.4412 31.8924C65.3332 32.818 65.3332 34.299 64.4244 35.2078Z" fill="white"/>
<path d="M28.9641 46.7362C28.9809 46.753 28.9809 46.753 28.9977 46.7699C29.9065 47.6787 29.9065 49.1597 28.9977 50.0685C27.6513 51.4149 26.2881 52.7781 24.9418 54.1244C24.0329 55.0332 22.5519 55.0332 21.6431 54.1244C21.6263 54.1076 21.6263 54.1076 21.6095 54.0908C20.7007 53.182 20.7007 51.701 21.6095 50.7922C22.939 49.4626 24.3022 48.0994 25.6654 46.7362C26.5742 45.8106 28.0553 45.8274 28.9641 46.7362Z" fill="white"/>
<path d="M28.9134 31.8082C28.9471 31.8419 28.9639 31.8587 28.9976 31.8924C29.9064 32.8012 29.9064 34.2822 28.9976 35.191C27.6512 36.5374 26.288 37.9006 24.9416 39.247C24.0328 40.1558 22.5518 40.1558 21.643 39.247C21.6093 39.2133 21.5925 39.1965 21.5588 39.1628C20.65 38.254 20.65 36.773 21.5588 35.8642C22.9052 34.5178 24.2684 33.1546 25.6148 31.8082C26.5236 30.8994 27.9878 30.8994 28.9134 31.8082Z" fill="white"/>
</g>
<defs>
<clipPath id="clip0">
<rect width="86" height="86" fill="white"/>
</clipPath>
</defs>
</svg>
