<svg width="74" height="74" viewBox="0 0 74 74" fill="none" xmlns="http://www.w3.org/2000/svg">
<g clip-path="url(#clip0)">
<path d="M56.9716 68.2736C56.1707 67.8287 55.3588 67.5062 54.7248 66.9835C53.7905 66.2162 53.0119 65.2709 52.122 64.4479C50.8874 63.2802 49.4414 62.9021 47.8509 63.5805C46.2714 64.2477 45.4595 65.5155 45.3705 67.2059C45.3038 68.4181 45.3816 69.6303 45.3371 70.8426C45.2704 72.7999 44.2916 73.9231 42.3896 73.9565C38.7524 74.0232 35.1153 74.0343 31.4781 73.9565C29.6762 73.9231 28.6084 72.9222 28.5639 71.0316C28.5306 69.7527 28.5973 68.4738 28.5306 67.1948C28.4305 65.371 27.663 63.9141 25.8611 63.2913C24.1704 62.713 22.68 63.2023 21.4676 64.5146C21.4231 64.5591 21.3786 64.6147 21.323 64.6592C16.9184 68.9631 16.9184 68.9631 12.5694 64.7037C10.7897 62.9577 8.9767 61.245 7.23042 59.4768C5.53975 57.7752 5.562 56.5185 7.21929 54.7725C8.0535 53.894 8.96557 53.0821 9.75529 52.1702C10.8008 50.9691 11.1901 49.5901 10.5228 48.0554C9.87764 46.554 8.75424 45.6977 7.11919 45.6087C5.84007 45.542 4.56094 45.5865 3.28182 45.5309C1.07951 45.4308 0.0673327 44.4521 0.0450872 42.2724C0.000595951 38.7692 0.000595951 35.2661 0.0450872 31.7629C0.0784556 29.5943 1.11288 28.649 3.32631 28.5823C4.73891 28.5378 6.17375 28.649 7.55298 28.4266C10.8676 27.8816 12.0466 24.3451 9.81091 21.8317C8.96557 20.8753 7.97564 20.0412 7.11919 19.0959C5.77333 17.5946 5.76221 16.2934 7.15256 14.8254C9.6107 12.2342 12.1022 9.67635 14.6382 7.16297C16.2176 5.59489 17.5413 5.63938 19.1985 7.20746C19.9771 7.95257 20.7224 8.74217 21.4898 9.48729C22.7467 10.6995 24.1593 11.2778 25.8945 10.5772C27.6741 9.85429 28.4193 8.45302 28.4416 6.60692C28.4638 5.39471 28.4082 4.18251 28.4861 2.97031C28.5973 1.1242 29.6429 0.112177 31.467 0.0788136C35.1041 0.023208 38.7413 0.023208 42.3896 0.0788136C44.3361 0.112177 45.3149 1.16868 45.4039 3.11488C45.4595 4.32708 45.3927 5.53929 45.4261 6.75149C45.4928 8.58648 46.227 10.0433 48.0177 10.7106C49.7084 11.3445 51.1766 10.8663 52.4335 9.5985C53.2343 8.78666 54.024 7.95257 54.8694 7.18521C56.3709 5.81732 57.6946 5.77283 59.1405 7.17409C61.81 9.7542 64.4239 12.3788 67.0043 15.0367C68.3057 16.3713 68.239 17.8059 66.9821 19.1515C66.1034 20.0857 65.158 20.9421 64.2904 21.8873C63.167 23.1218 62.7109 24.5119 63.4117 26.1579C64.0902 27.7593 65.347 28.5378 67.0155 28.6601C68.2946 28.7491 69.5737 28.6601 70.8528 28.7046C72.7993 28.7713 73.9005 29.7611 73.9339 31.6851C74.0006 35.3217 74.0006 38.9583 73.9339 42.606C73.9005 44.53 72.8438 45.5865 70.9196 45.7088C69.5737 45.7978 68.2279 45.7422 66.882 45.7422C65.2136 45.7422 64.079 46.5651 63.4006 48.0331C62.7109 49.5233 62.9445 50.9469 64.0012 52.1702C64.8799 53.1933 65.9143 54.0719 66.8153 55.0728C68.2056 56.6075 68.2612 57.8753 66.8597 59.3322C64.2904 62.0013 61.6543 64.6036 58.9959 67.1837C58.5065 67.6174 57.7613 67.8399 56.9716 68.2736ZM12.8697 16.8717C16.1954 20.1858 17.5969 23.8335 15.795 28.1819C13.9708 32.5859 10.3559 34.2207 5.78445 34.1539C5.78445 36.1224 5.78445 37.9129 5.78445 39.8925C10.4672 39.7145 13.9931 41.4828 15.8172 45.8645C17.6636 50.2907 16.0397 53.9384 13.17 56.8967C14.5492 58.3202 15.795 59.5991 17.0852 60.9336C20.1885 57.7975 23.8368 56.4073 28.1969 58.209C32.6015 60.0328 34.2366 63.6472 34.1698 68.218C36.1386 68.218 37.9293 68.218 39.8647 68.218C39.7757 63.5693 41.4775 60.0106 45.8821 58.1756C50.309 56.3406 53.9573 57.9643 56.9271 60.8224C58.3397 59.4434 59.6188 58.1978 60.9535 56.9078C57.7947 53.8161 56.4266 50.1573 58.2285 45.8089C60.0526 41.4049 63.6675 39.7701 68.239 39.8368C68.239 37.8684 68.239 36.0779 68.239 34.1428C63.5896 34.2207 60.0303 32.5303 58.1951 28.1263C56.3598 23.7001 57.9837 20.0524 60.7978 17.1386C59.4408 15.704 58.2062 14.4028 56.9271 13.0572C53.8238 16.2045 50.1755 17.5946 45.8154 15.7818C41.4108 13.958 39.7646 10.3436 39.8425 5.77283C37.8737 5.77283 36.083 5.77283 34.1476 5.77283C34.2254 10.4215 32.5348 13.9802 28.1302 15.8152C23.7033 17.6613 20.055 16.0154 16.8516 12.946C15.4835 14.2916 14.2378 15.5149 12.8697 16.8717Z" fill="white"/>
<path d="M36.9832 51.146C29.0304 51.1127 22.7572 44.7736 22.8461 36.8776C22.9351 29.015 29.1528 22.8539 37.0277 22.8428C44.9472 22.8428 51.1982 29.1596 51.1648 37.1223C51.1092 44.9405 44.8026 51.1794 36.9832 51.146ZM37.05 28.3922C32.4785 28.3255 28.3742 32.4069 28.3964 37C28.4076 41.5485 32.256 45.4632 36.8498 45.6077C41.399 45.7412 45.5256 41.7376 45.6034 37.1112C45.6813 32.507 41.6882 28.4478 37.05 28.3922Z" fill="white"/>
</g>
<defs>
<clipPath id="clip0">
<rect width="74" height="74" fill="white"/>
</clipPath>
</defs>
</svg>
