<svg width="95" height="61" viewBox="0 0 95 61" fill="none" xmlns="http://www.w3.org/2000/svg">
<g clip-path="url(#clip0)">
<path d="M95 61C63.3581 61 31.7162 61 0 61C0 48.0583 0 35.1167 0 22.175C31.6419 22.175 63.2838 22.175 95 22.175C95 35.1909 95 48.0954 95 61ZM67.0763 33.244C67.0763 31.3899 67.0763 29.61 67.0763 27.793C65.1614 27.793 63.3395 27.793 61.4247 27.793C61.4247 31.4826 61.4247 35.1167 61.4247 38.7322C59.547 38.7322 57.7436 38.7322 55.866 38.7322C55.866 35.0425 55.866 31.4085 55.866 27.7744C53.9697 27.7744 52.1663 27.7744 50.2701 27.7744C50.2701 29.6285 50.2701 31.427 50.2701 33.2255C48.3924 33.2255 46.6076 33.2255 44.7299 33.2255C44.7299 31.3899 44.7299 29.5915 44.7299 27.793C42.8151 27.793 41.0117 27.793 39.1341 27.793C39.1341 31.4826 39.1341 35.0981 39.1341 38.7693C37.2564 38.7693 35.453 38.7693 33.5382 38.7693C33.5382 35.0611 33.5382 31.427 33.5382 27.8115C31.6233 27.8115 29.82 27.8115 27.9237 27.8115C27.9237 29.6656 27.9237 31.4456 27.9237 33.244C26.046 33.244 24.2798 33.244 22.365 33.244C22.365 31.4085 22.365 29.61 22.365 27.793C20.4501 27.793 18.6282 27.793 16.7133 27.793C16.7133 31.5012 16.7133 35.1352 16.7133 38.7693C14.817 38.7693 13.0323 38.7693 11.1546 38.7693C11.1546 35.0611 11.1546 31.427 11.1546 27.8115C9.23973 27.8115 7.4364 27.8115 5.65166 27.8115C5.65166 33.3553 5.65166 38.8249 5.65166 44.313C33.6125 44.313 61.499 44.313 89.4041 44.313C89.4041 38.7693 89.4041 33.2626 89.4041 27.8115C87.5264 27.8115 85.7231 27.8115 83.8454 27.8115C83.8454 31.5012 83.8454 35.1352 83.8454 38.7507C81.9677 38.7507 80.1644 38.7507 78.2867 38.7507C78.2867 35.0611 78.2867 31.427 78.2867 27.793C76.3904 27.793 74.5871 27.793 72.6722 27.793C72.6722 29.6471 72.6722 31.4456 72.6722 33.2626C70.7387 33.244 68.9726 33.244 67.0763 33.244ZM89.3855 49.9681C61.4061 49.9681 33.501 49.9681 5.59589 49.9681C5.59589 51.8036 5.59589 53.5836 5.59589 55.4006C33.5382 55.4006 61.4432 55.4006 89.3855 55.4006C89.3855 53.5836 89.3855 51.8036 89.3855 49.9681Z" fill="white"/>
<path d="M-0.00081818 0C1.8211 0 3.64302 0 5.55789 0C5.55789 1.8541 5.55789 3.65258 5.55789 5.50669C33.5373 5.50669 61.4053 5.50669 89.3847 5.50669C89.3847 3.72675 89.3847 1.92827 89.3847 0.0741641C91.281 0.0741641 93.0843 0.0741641 94.9434 0.0741641C94.9434 5.56231 94.9434 11.0319 94.9434 16.5757C93.1587 16.5757 91.3554 16.5757 89.4405 16.5757C89.4405 14.7957 89.4405 12.9973 89.4405 11.1432C61.4424 11.1432 33.5373 11.1432 5.57648 11.1432C5.57648 12.9602 5.57648 14.7401 5.57648 16.6313C3.66161 16.6313 1.8211 16.6313 -0.0194092 16.6313C-0.00081818 11.0875 -0.00081818 5.54377 -0.00081818 0Z" fill="white"/>
</g>
<defs>
<clipPath id="clip0">
<rect width="95" height="61" fill="white"/>
</clipPath>
</defs>
</svg>
