<svg width="151" height="85" viewBox="0 0 151 85" fill="none" xmlns="http://www.w3.org/2000/svg">
<path d="M38.9747 85C30.7619 85 24.134 78.3673 24.134 70.1484C24.134 61.9296 30.7619 55.2969 38.9747 55.2969C47.1875 55.2969 53.8153 61.9296 53.8153 70.1484C53.8153 78.3673 47.1875 85 38.9747 85ZM38.9747 59.911C33.2834 59.911 28.7447 64.525 28.7447 70.1484C28.7447 75.844 33.3554 80.3859 38.9747 80.3859C44.594 80.3859 49.2046 75.7719 49.2046 70.1484C49.2046 64.525 44.594 59.911 38.9747 59.911Z" fill="url(#paint0_linear)"/>
<path d="M117.356 85C109.144 85 102.516 78.3673 102.516 70.1484C102.516 61.9296 109.144 55.2969 117.356 55.2969C125.569 55.2969 132.197 61.9296 132.197 70.1484C132.197 78.3673 125.569 85 117.356 85ZM117.356 59.911C111.665 59.911 107.126 64.525 107.126 70.1484C107.126 75.844 111.737 80.3859 117.356 80.3859C123.048 80.3859 127.586 75.7719 127.586 70.1484C127.658 64.525 123.048 59.911 117.356 59.911Z" fill="url(#paint1_linear)"/>
<path d="M89.6202 72.4555H52.0143V67.9135H85.0816V4.61408H4.61069V67.9135H24.3502V72.4555H0V0H89.6202V72.4555Z" fill="url(#paint2_linear)"/>
<path d="M151 72.4555H129.964V67.9135H146.389V44.1221L118.005 16.5097H87.387V11.8957H119.878L151 42.1756V72.4555Z" fill="url(#paint3_linear)"/>
<path d="M104.893 67.9135H87.387V72.5275H104.893V67.9135Z" fill="url(#paint4_linear)"/>
<defs>
<linearGradient id="paint0_linear" x1="38.9747" y1="55.2969" x2="38.9747" y2="85" gradientUnits="userSpaceOnUse">
<stop stop-color="#2574B8"/>
<stop offset="1" stop-color="#329DEB"/>
</linearGradient>
<linearGradient id="paint1_linear" x1="117.356" y1="55.2969" x2="117.356" y2="85" gradientUnits="userSpaceOnUse">
<stop stop-color="#2574B8"/>
<stop offset="1" stop-color="#329DEB"/>
</linearGradient>
<linearGradient id="paint2_linear" x1="44.8101" y1="0" x2="44.8101" y2="72.4555" gradientUnits="userSpaceOnUse">
<stop stop-color="#2574B8"/>
<stop offset="1" stop-color="#329DEB"/>
</linearGradient>
<linearGradient id="paint3_linear" x1="119.194" y1="11.8957" x2="119.194" y2="72.4555" gradientUnits="userSpaceOnUse">
<stop stop-color="#2574B8"/>
<stop offset="1" stop-color="#329DEB"/>
</linearGradient>
<linearGradient id="paint4_linear" x1="96.1401" y1="67.9135" x2="96.1401" y2="72.5275" gradientUnits="userSpaceOnUse">
<stop stop-color="#2574B8"/>
<stop offset="1" stop-color="#329DEB"/>
</linearGradient>
</defs>
</svg>
