<svg width="70" height="77" viewBox="0 0 70 77" fill="none" xmlns="http://www.w3.org/2000/svg">
<g clip-path="url(#clip0)">
<path d="M50.9501 0C51.2859 0.0753277 51.637 0.150655 51.9728 0.225983C57.8188 1.4011 61.7722 6.19194 61.818 12.2784C61.8638 18.2444 61.8332 24.2103 61.818 30.1763C61.818 31.8034 61.0853 32.9182 59.7726 33.3551C58.5362 33.7619 57.2388 33.3852 56.4146 32.3909C55.8345 31.6828 55.7277 30.8542 55.7277 29.9804C55.7277 24.1651 55.7124 18.3498 55.743 12.5345C55.7582 10.4103 55.0866 8.60243 53.3465 7.26159C52.2323 6.38779 50.9348 5.99609 49.5306 5.99609C37.1211 5.98102 24.7116 5.98102 12.2868 5.99609C8.86769 6.01115 6.39495 8.37644 6.13546 11.721C6.1202 11.9771 6.10494 12.2182 6.10494 12.4743C6.10494 29.7846 6.10494 47.11 6.08967 64.4203C6.08967 66.5596 6.76128 68.3524 8.50136 69.6781C9.67668 70.5821 11.0199 70.9286 12.4852 70.9286C15.767 70.9286 19.0334 70.9135 22.3151 70.9286C23.7499 70.9436 24.8337 71.7271 25.2611 73.0076C25.6579 74.1827 25.3221 75.5386 24.2689 76.2317C23.6889 76.6083 22.9257 76.8945 22.2388 76.9096C18.896 76.9849 15.538 76.9397 12.1952 76.9397C5.50965 76.9699 -0.0616569 71.5764 -0.000601526 64.5408C0.0909816 54.5975 0.0146623 44.6392 0.0146623 34.6959C0.0146623 27.2837 0.0146623 19.8564 0.0146623 12.4441C0.0146623 7.72862 1.99896 4.05263 6.13546 1.67228C7.40236 0.949129 8.91348 0.647818 10.3178 0.165721C10.5009 0.105459 10.6994 0.0602622 10.8978 0.0150655C24.2536 0 37.5942 0 50.9501 0Z" fill="white"/>
<path d="M70 49.9273C69.8779 52.4583 68.962 54.5976 67.1762 56.3603C61.7117 61.7688 56.232 67.1774 50.7217 72.5407C50.1875 73.0529 49.4243 73.4296 48.6916 73.6405C44.9215 74.7252 41.1208 75.7195 37.3506 76.7741C36.0837 77.1206 34.9237 77.0604 33.962 76.1112C32.9699 75.132 32.9088 73.9569 33.3057 72.6913C34.4352 69.0304 35.5342 65.3544 36.7095 61.7086C36.9385 61.0005 37.3659 60.2773 37.9001 59.75C43.3035 54.3716 48.7222 49.0234 54.1561 43.7052C59.1626 38.8089 67.2677 40.6469 69.4352 47.1552C69.7252 48.029 69.8168 48.9932 70 49.9273ZM40.6171 69.618C42.5403 69.0907 44.2957 68.6387 46.0357 68.1114C46.4936 67.9758 46.9821 67.7197 47.3179 67.3883C50.7217 64.0739 54.0798 60.7444 57.4531 57.4149C57.621 57.2492 57.7889 57.0533 57.8805 56.9629C56.4457 55.5317 55.0414 54.1457 53.6219 52.7295C53.6219 52.7295 53.5608 52.7596 53.4998 52.8199C49.8975 56.3603 46.3105 59.9007 42.7235 63.4411C42.5861 63.5767 42.4487 63.7424 42.3877 63.9232C41.8076 65.7763 41.2429 67.6143 40.6171 69.618ZM58.1094 48.3304C59.5595 49.7616 60.9485 51.1476 62.368 52.5487C63.4365 51.7653 64.0165 50.7107 63.7418 49.3397C63.4976 48.1345 62.7344 47.3511 61.5133 47.0347C60.0632 46.6581 59.01 47.2908 58.1094 48.3304Z" fill="white"/>
<path d="M30.9246 24.0597C25.7502 24.0597 20.5757 24.0748 15.4013 24.0597C13.3407 24.0597 11.9822 22.5381 12.2417 20.5947C12.4248 19.2538 13.5544 18.1992 14.9586 18.0636C15.1113 18.0486 15.2639 18.0486 15.4165 18.0486C25.7502 18.0486 36.0685 18.0486 46.4022 18.0486C48.2491 18.0486 49.577 19.2538 49.6228 20.9562C49.6839 22.7189 48.3407 24.0597 46.4479 24.0597C42.9525 24.0748 39.4418 24.0597 35.9464 24.0597C34.2827 24.0597 32.6036 24.0597 30.9246 24.0597Z" fill="white"/>
<path d="M30.8483 36.082C25.7196 36.082 20.591 36.082 15.4776 36.082C13.4017 36.082 12.0127 34.6207 12.2569 32.6923C12.4248 31.3062 13.5391 30.2366 14.9892 30.101C15.1723 30.0859 15.3402 30.0859 15.5234 30.0859C25.796 30.0859 36.0838 30.0859 46.3564 30.0859C48.2949 30.0859 49.6381 31.3213 49.6533 33.0689C49.6686 34.8014 48.3254 36.082 46.4785 36.0971C42.6778 36.1121 38.8618 36.0971 35.0611 36.0971C33.6416 36.082 32.2373 36.082 30.8483 36.082Z" fill="white"/>
<path d="M24.7733 48.1192C21.629 48.1192 18.4846 48.1343 15.3403 48.1192C13.3102 48.1042 11.967 46.5373 12.257 44.609C12.4859 43.1476 13.7376 42.1232 15.4013 42.1232C18.2709 42.1081 21.1253 42.1232 23.9949 42.1232C27.3987 42.1232 30.7873 42.1081 34.1911 42.1232C36.2212 42.1382 37.5797 43.7201 37.2744 45.6334C37.0454 47.0948 35.7938 48.1192 34.1301 48.1192C31.001 48.1192 27.8871 48.1192 24.7733 48.1192Z" fill="white"/>
</g>
<defs>
<clipPath id="clip0">
<rect width="70" height="77" fill="white"/>
</clipPath>
</defs>
</svg>
