<svg width="68" height="79" viewBox="0 0 68 79" fill="none" xmlns="http://www.w3.org/2000/svg">
<g clip-path="url(#clip0)">
<path d="M68 1.3926C68 27.275 68 53.1375 68 79.0199C45.7894 79.0199 23.5789 79.0199 1.36833 79.0199C0.376786 78.5225 0 77.7466 0 76.6326C0.0198309 51.8643 0.0198309 27.1357 0.0198309 2.38731C0.0198309 0.576932 0.575095 0.0198942 2.3797 0.0198942C23.4004 0.0198942 44.4211 0.0198942 65.4418 0C66.6118 0 67.4844 0.298413 68 1.3926ZM3.62905 75.3394C23.916 75.3394 44.1038 75.3394 64.3313 75.3394C64.3313 51.4067 64.3313 27.5535 64.3313 3.68043C44.0642 3.68043 23.8565 3.68043 3.62905 3.68043C3.62905 27.6132 3.62905 51.4465 3.62905 75.3394Z" fill="white"/>
<path d="M7.23828 7.2415C25.0861 7.2415 42.8743 7.2415 60.7419 7.2415C60.7419 28.7273 60.7419 50.2131 60.7419 71.7585C42.914 71.7585 25.1059 71.7585 7.23828 71.7585C7.23828 50.2528 7.23828 28.7671 7.23828 7.2415ZM10.8078 68.1775C17.9866 68.1775 25.0662 68.1775 32.1458 68.1775C32.1458 56.8179 32.1458 45.518 32.1458 34.1783C25.0067 34.1783 17.9469 34.1783 10.8078 34.1783C10.8078 45.518 10.8078 56.798 10.8078 68.1775ZM57.1525 68.1775C57.1525 56.7781 57.1525 45.4782 57.1525 34.1783C50.0134 34.1783 42.9338 34.1783 35.8145 34.1783C35.8145 45.5379 35.8145 56.8179 35.8145 68.1775C42.9537 68.1775 50.0134 68.1775 57.1525 68.1775ZM32.1657 30.5178C32.1657 23.9129 32.1657 17.4075 32.1657 10.8623C25.0266 10.8623 17.9469 10.8623 10.8475 10.8623C10.8475 17.4671 10.8475 23.9924 10.8475 30.5178C17.9866 30.5178 25.0266 30.5178 32.1657 30.5178ZM57.1724 10.8623C50.0134 10.8623 42.9338 10.8623 35.8344 10.8623C35.8344 17.4472 35.8344 23.9527 35.8344 30.4979C42.9536 30.4979 50.0333 30.4979 57.1724 30.4979C57.1724 23.9328 57.1724 17.4075 57.1724 10.8623Z" fill="white"/>
</g>
<defs>
<clipPath id="clip0">
<rect width="68" height="79" fill="white"/>
</clipPath>
</defs>
</svg>
